<?xml version="1.0" encoding="UTF-8" standalone="no"?>
<!DOCTYPE svg PUBLIC "-//W3C//DTD SVG 1.1//EN" "http://www.w3.org/Graphics/SVG/1.1/DTD/svg11.dtd">
<svg width="100%" height="100%" viewBox="0 0 15 15" version="1.1" xmlns="http://www.w3.org/2000/svg" xmlns:xlink="http://www.w3.org/1999/xlink" xml:space="preserve" xmlns:serif="http://www.serif.com/" style="fill-rule:evenodd;clip-rule:evenodd;stroke-linejoin:round;stroke-miterlimit:2;">
    <g transform="matrix(1,0,0,1,-0.917358,-2.44656e-08)">
        <path d="M7.185,7.183L1.152,1.166C0.884,0.899 0.884,0.467 1.152,0.2C1.419,-0.066 1.853,-0.067 2.121,0.2L8.154,6.217L14.036,0.35C14.304,0.083 14.738,0.084 15.005,0.351C15.272,0.617 15.273,1.049 15.004,1.316L9.122,7.183L15.039,13.084C15.307,13.351 15.306,13.784 15.038,14.05C14.771,14.317 14.338,14.317 14.07,14.05L8.154,8.149L2.087,14.2C1.819,14.467 1.386,14.467 1.118,14.2C0.851,13.934 0.85,13.501 1.118,13.234L7.185,7.183Z"/>
    </g>
</svg>
