<?xml version="1.0" encoding="UTF-8" standalone="no"?>
<!DOCTYPE svg PUBLIC "-//W3C//DTD SVG 1.1//EN" "http://www.w3.org/Graphics/SVG/1.1/DTD/svg11.dtd">
<svg width="100%" height="100%" viewBox="0 0 60 60" version="1.1" xmlns="http://www.w3.org/2000/svg" xmlns:xlink="http://www.w3.org/1999/xlink" xml:space="preserve" xmlns:serif="http://www.serif.com/" style="fill-rule:evenodd;clip-rule:evenodd;stroke-linejoin:round;stroke-miterlimit:2;">
    <g transform="matrix(0.892912,0,0,0.892912,-50.9969,-27.4117)">
        <path id="logo" d="M124.309,30.699L124.309,97.895L57.113,97.895L57.113,30.699L124.309,30.699ZM108.833,70.416C110.368,69.961 111.597,69.151 112.521,67.986C113.445,66.82 113.907,65.356 113.907,63.594C113.907,61.206 113.047,59.316 111.327,57.923C109.608,56.53 107.227,55.833 104.185,55.833L90.711,55.833L90.711,85.766L104.654,85.766C107.781,85.766 110.219,85.034 111.967,83.57C113.715,82.107 114.589,80.124 114.589,77.622C114.589,75.888 114.063,74.346 113.012,72.996C111.96,71.646 110.567,70.786 108.833,70.416ZM103.375,79.882L98.002,79.882L98.002,73.273L103.29,73.273C104.512,73.273 105.471,73.571 106.168,74.168C106.864,74.765 107.213,75.59 107.213,76.642C107.213,77.693 106.879,78.496 106.211,79.051C105.543,79.605 104.597,79.882 103.375,79.882ZM98.002,67.943L98.002,61.675L102.778,61.675C103.972,61.675 104.889,61.945 105.528,62.485C106.168,63.025 106.488,63.807 106.488,64.83C106.488,65.854 106.168,66.628 105.528,67.154C104.889,67.68 103.972,67.943 102.778,67.943L98.002,67.943Z"/>
    </g>
</svg>
